%TF.GenerationSoftware,KiCad,Pcbnew,8.0.8*%
%TF.CreationDate,2025-08-14T20:46:24+02:00*%
%TF.ProjectId,DECPROMEM,44454350-524f-44d4-954d-2e6b69636164,rev?*%
%TF.SameCoordinates,Original*%
%TF.FileFunction,Legend,Bot*%
%TF.FilePolarity,Positive*%
%FSLAX46Y46*%
G04 Gerber Fmt 4.6, Leading zero omitted, Abs format (unit mm)*
G04 Created by KiCad (PCBNEW 8.0.8) date 2025-08-14 20:46:24*
%MOMM*%
%LPD*%
G01*
G04 APERTURE LIST*
%ADD10C,0.300000*%
%ADD11C,0.200000*%
G04 APERTURE END LIST*
D10*
X351945146Y-235481657D02*
X351945146Y-232481657D01*
X351945146Y-232481657D02*
X350945146Y-234624514D01*
X350945146Y-234624514D02*
X349945146Y-232481657D01*
X349945146Y-232481657D02*
X349945146Y-235481657D01*
X347230861Y-235481657D02*
X347230861Y-233910228D01*
X347230861Y-233910228D02*
X347373718Y-233624514D01*
X347373718Y-233624514D02*
X347659432Y-233481657D01*
X347659432Y-233481657D02*
X348230861Y-233481657D01*
X348230861Y-233481657D02*
X348516575Y-233624514D01*
X347230861Y-235338800D02*
X347516575Y-235481657D01*
X347516575Y-235481657D02*
X348230861Y-235481657D01*
X348230861Y-235481657D02*
X348516575Y-235338800D01*
X348516575Y-235338800D02*
X348659432Y-235053085D01*
X348659432Y-235053085D02*
X348659432Y-234767371D01*
X348659432Y-234767371D02*
X348516575Y-234481657D01*
X348516575Y-234481657D02*
X348230861Y-234338800D01*
X348230861Y-234338800D02*
X347516575Y-234338800D01*
X347516575Y-234338800D02*
X347230861Y-234195942D01*
X346230860Y-233481657D02*
X345088003Y-233481657D01*
X345802289Y-232481657D02*
X345802289Y-235053085D01*
X345802289Y-235053085D02*
X345659432Y-235338800D01*
X345659432Y-235338800D02*
X345373717Y-235481657D01*
X345373717Y-235481657D02*
X345088003Y-235481657D01*
X344516574Y-233481657D02*
X343373717Y-233481657D01*
X344088003Y-232481657D02*
X344088003Y-235053085D01*
X344088003Y-235053085D02*
X343945146Y-235338800D01*
X343945146Y-235338800D02*
X343659431Y-235481657D01*
X343659431Y-235481657D02*
X343373717Y-235481657D01*
X342373717Y-235481657D02*
X342373717Y-233481657D01*
X342373717Y-232481657D02*
X342516574Y-232624514D01*
X342516574Y-232624514D02*
X342373717Y-232767371D01*
X342373717Y-232767371D02*
X342230860Y-232624514D01*
X342230860Y-232624514D02*
X342373717Y-232481657D01*
X342373717Y-232481657D02*
X342373717Y-232767371D01*
X341088003Y-235338800D02*
X340802289Y-235481657D01*
X340802289Y-235481657D02*
X340230860Y-235481657D01*
X340230860Y-235481657D02*
X339945146Y-235338800D01*
X339945146Y-235338800D02*
X339802289Y-235053085D01*
X339802289Y-235053085D02*
X339802289Y-234910228D01*
X339802289Y-234910228D02*
X339945146Y-234624514D01*
X339945146Y-234624514D02*
X340230860Y-234481657D01*
X340230860Y-234481657D02*
X340659432Y-234481657D01*
X340659432Y-234481657D02*
X340945146Y-234338800D01*
X340945146Y-234338800D02*
X341088003Y-234053085D01*
X341088003Y-234053085D02*
X341088003Y-233910228D01*
X341088003Y-233910228D02*
X340945146Y-233624514D01*
X340945146Y-233624514D02*
X340659432Y-233481657D01*
X340659432Y-233481657D02*
X340230860Y-233481657D01*
X340230860Y-233481657D02*
X339945146Y-233624514D01*
X334802289Y-235481657D02*
X336230861Y-235481657D01*
X336230861Y-235481657D02*
X336230861Y-232481657D01*
X333802290Y-235481657D02*
X333802290Y-233481657D01*
X333802290Y-232481657D02*
X333945147Y-232624514D01*
X333945147Y-232624514D02*
X333802290Y-232767371D01*
X333802290Y-232767371D02*
X333659433Y-232624514D01*
X333659433Y-232624514D02*
X333802290Y-232481657D01*
X333802290Y-232481657D02*
X333802290Y-232767371D01*
X332373719Y-233481657D02*
X332373719Y-235481657D01*
X332373719Y-233767371D02*
X332230862Y-233624514D01*
X332230862Y-233624514D02*
X331945147Y-233481657D01*
X331945147Y-233481657D02*
X331516576Y-233481657D01*
X331516576Y-233481657D02*
X331230862Y-233624514D01*
X331230862Y-233624514D02*
X331088005Y-233910228D01*
X331088005Y-233910228D02*
X331088005Y-235481657D01*
X328373719Y-235481657D02*
X328373719Y-232481657D01*
X328373719Y-235338800D02*
X328659433Y-235481657D01*
X328659433Y-235481657D02*
X329230861Y-235481657D01*
X329230861Y-235481657D02*
X329516576Y-235338800D01*
X329516576Y-235338800D02*
X329659433Y-235195942D01*
X329659433Y-235195942D02*
X329802290Y-234910228D01*
X329802290Y-234910228D02*
X329802290Y-234053085D01*
X329802290Y-234053085D02*
X329659433Y-233767371D01*
X329659433Y-233767371D02*
X329516576Y-233624514D01*
X329516576Y-233624514D02*
X329230861Y-233481657D01*
X329230861Y-233481657D02*
X328659433Y-233481657D01*
X328659433Y-233481657D02*
X328373719Y-233624514D01*
X324802290Y-232767371D02*
X324659433Y-232624514D01*
X324659433Y-232624514D02*
X324373719Y-232481657D01*
X324373719Y-232481657D02*
X323659433Y-232481657D01*
X323659433Y-232481657D02*
X323373719Y-232624514D01*
X323373719Y-232624514D02*
X323230861Y-232767371D01*
X323230861Y-232767371D02*
X323088004Y-233053085D01*
X323088004Y-233053085D02*
X323088004Y-233338800D01*
X323088004Y-233338800D02*
X323230861Y-233767371D01*
X323230861Y-233767371D02*
X324945147Y-235481657D01*
X324945147Y-235481657D02*
X323088004Y-235481657D01*
X321230861Y-232481657D02*
X320945147Y-232481657D01*
X320945147Y-232481657D02*
X320659433Y-232624514D01*
X320659433Y-232624514D02*
X320516576Y-232767371D01*
X320516576Y-232767371D02*
X320373718Y-233053085D01*
X320373718Y-233053085D02*
X320230861Y-233624514D01*
X320230861Y-233624514D02*
X320230861Y-234338800D01*
X320230861Y-234338800D02*
X320373718Y-234910228D01*
X320373718Y-234910228D02*
X320516576Y-235195942D01*
X320516576Y-235195942D02*
X320659433Y-235338800D01*
X320659433Y-235338800D02*
X320945147Y-235481657D01*
X320945147Y-235481657D02*
X321230861Y-235481657D01*
X321230861Y-235481657D02*
X321516576Y-235338800D01*
X321516576Y-235338800D02*
X321659433Y-235195942D01*
X321659433Y-235195942D02*
X321802290Y-234910228D01*
X321802290Y-234910228D02*
X321945147Y-234338800D01*
X321945147Y-234338800D02*
X321945147Y-233624514D01*
X321945147Y-233624514D02*
X321802290Y-233053085D01*
X321802290Y-233053085D02*
X321659433Y-232767371D01*
X321659433Y-232767371D02*
X321516576Y-232624514D01*
X321516576Y-232624514D02*
X321230861Y-232481657D01*
X319088004Y-232767371D02*
X318945147Y-232624514D01*
X318945147Y-232624514D02*
X318659433Y-232481657D01*
X318659433Y-232481657D02*
X317945147Y-232481657D01*
X317945147Y-232481657D02*
X317659433Y-232624514D01*
X317659433Y-232624514D02*
X317516575Y-232767371D01*
X317516575Y-232767371D02*
X317373718Y-233053085D01*
X317373718Y-233053085D02*
X317373718Y-233338800D01*
X317373718Y-233338800D02*
X317516575Y-233767371D01*
X317516575Y-233767371D02*
X319230861Y-235481657D01*
X319230861Y-235481657D02*
X317373718Y-235481657D01*
X314659432Y-232481657D02*
X316088004Y-232481657D01*
X316088004Y-232481657D02*
X316230861Y-233910228D01*
X316230861Y-233910228D02*
X316088004Y-233767371D01*
X316088004Y-233767371D02*
X315802290Y-233624514D01*
X315802290Y-233624514D02*
X315088004Y-233624514D01*
X315088004Y-233624514D02*
X314802290Y-233767371D01*
X314802290Y-233767371D02*
X314659432Y-233910228D01*
X314659432Y-233910228D02*
X314516575Y-234195942D01*
X314516575Y-234195942D02*
X314516575Y-234910228D01*
X314516575Y-234910228D02*
X314659432Y-235195942D01*
X314659432Y-235195942D02*
X314802290Y-235338800D01*
X314802290Y-235338800D02*
X315088004Y-235481657D01*
X315088004Y-235481657D02*
X315802290Y-235481657D01*
X315802290Y-235481657D02*
X316088004Y-235338800D01*
X316088004Y-235338800D02*
X316230861Y-235195942D01*
D11*
X393159314Y-118749530D02*
X393064076Y-118844768D01*
X393064076Y-118844768D02*
X392968838Y-119035244D01*
X392968838Y-119035244D02*
X392968838Y-119511435D01*
X392968838Y-119511435D02*
X393064076Y-119701911D01*
X393064076Y-119701911D02*
X393159314Y-119797149D01*
X393159314Y-119797149D02*
X393349790Y-119892387D01*
X393349790Y-119892387D02*
X393540266Y-119892387D01*
X393540266Y-119892387D02*
X393825980Y-119797149D01*
X393825980Y-119797149D02*
X394968838Y-118654292D01*
X394968838Y-118654292D02*
X394968838Y-119892387D01*
X394968838Y-122559054D02*
X394873600Y-122368578D01*
X394873600Y-122368578D02*
X394778361Y-122273340D01*
X394778361Y-122273340D02*
X394587885Y-122178102D01*
X394587885Y-122178102D02*
X394016457Y-122178102D01*
X394016457Y-122178102D02*
X393825980Y-122273340D01*
X393825980Y-122273340D02*
X393730742Y-122368578D01*
X393730742Y-122368578D02*
X393635504Y-122559054D01*
X393635504Y-122559054D02*
X393635504Y-122844769D01*
X393635504Y-122844769D02*
X393730742Y-123035245D01*
X393730742Y-123035245D02*
X393825980Y-123130483D01*
X393825980Y-123130483D02*
X394016457Y-123225721D01*
X394016457Y-123225721D02*
X394587885Y-123225721D01*
X394587885Y-123225721D02*
X394778361Y-123130483D01*
X394778361Y-123130483D02*
X394873600Y-123035245D01*
X394873600Y-123035245D02*
X394968838Y-122844769D01*
X394968838Y-122844769D02*
X394968838Y-122559054D01*
X394968838Y-124082864D02*
X393635504Y-124082864D01*
X394016457Y-124082864D02*
X393825980Y-124178102D01*
X393825980Y-124178102D02*
X393730742Y-124273340D01*
X393730742Y-124273340D02*
X393635504Y-124463816D01*
X393635504Y-124463816D02*
X393635504Y-124654293D01*
X393635504Y-127701912D02*
X394968838Y-127701912D01*
X392873600Y-127225721D02*
X394302171Y-126749531D01*
X394302171Y-126749531D02*
X394302171Y-127987626D01*
X394968838Y-130273341D02*
X393635504Y-130273341D01*
X393825980Y-130273341D02*
X393730742Y-130368579D01*
X393730742Y-130368579D02*
X393635504Y-130559055D01*
X393635504Y-130559055D02*
X393635504Y-130844770D01*
X393635504Y-130844770D02*
X393730742Y-131035246D01*
X393730742Y-131035246D02*
X393921219Y-131130484D01*
X393921219Y-131130484D02*
X394968838Y-131130484D01*
X393921219Y-131130484D02*
X393730742Y-131225722D01*
X393730742Y-131225722D02*
X393635504Y-131416198D01*
X393635504Y-131416198D02*
X393635504Y-131701912D01*
X393635504Y-131701912D02*
X393730742Y-131892389D01*
X393730742Y-131892389D02*
X393921219Y-131987627D01*
X393921219Y-131987627D02*
X394968838Y-131987627D01*
X394873600Y-133701913D02*
X394968838Y-133511437D01*
X394968838Y-133511437D02*
X394968838Y-133130484D01*
X394968838Y-133130484D02*
X394873600Y-132940008D01*
X394873600Y-132940008D02*
X394683123Y-132844770D01*
X394683123Y-132844770D02*
X393921219Y-132844770D01*
X393921219Y-132844770D02*
X393730742Y-132940008D01*
X393730742Y-132940008D02*
X393635504Y-133130484D01*
X393635504Y-133130484D02*
X393635504Y-133511437D01*
X393635504Y-133511437D02*
X393730742Y-133701913D01*
X393730742Y-133701913D02*
X393921219Y-133797151D01*
X393921219Y-133797151D02*
X394111695Y-133797151D01*
X394111695Y-133797151D02*
X394302171Y-132844770D01*
X393635504Y-135511437D02*
X395254552Y-135511437D01*
X395254552Y-135511437D02*
X395445028Y-135416199D01*
X395445028Y-135416199D02*
X395540266Y-135320961D01*
X395540266Y-135320961D02*
X395635504Y-135130484D01*
X395635504Y-135130484D02*
X395635504Y-134844770D01*
X395635504Y-134844770D02*
X395540266Y-134654294D01*
X394873600Y-135511437D02*
X394968838Y-135320961D01*
X394968838Y-135320961D02*
X394968838Y-134940008D01*
X394968838Y-134940008D02*
X394873600Y-134749532D01*
X394873600Y-134749532D02*
X394778361Y-134654294D01*
X394778361Y-134654294D02*
X394587885Y-134559056D01*
X394587885Y-134559056D02*
X394016457Y-134559056D01*
X394016457Y-134559056D02*
X393825980Y-134654294D01*
X393825980Y-134654294D02*
X393730742Y-134749532D01*
X393730742Y-134749532D02*
X393635504Y-134940008D01*
X393635504Y-134940008D02*
X393635504Y-135320961D01*
X393635504Y-135320961D02*
X393730742Y-135511437D01*
X394968838Y-137987628D02*
X393635504Y-137987628D01*
X393825980Y-137987628D02*
X393730742Y-138082866D01*
X393730742Y-138082866D02*
X393635504Y-138273342D01*
X393635504Y-138273342D02*
X393635504Y-138559057D01*
X393635504Y-138559057D02*
X393730742Y-138749533D01*
X393730742Y-138749533D02*
X393921219Y-138844771D01*
X393921219Y-138844771D02*
X394968838Y-138844771D01*
X393921219Y-138844771D02*
X393730742Y-138940009D01*
X393730742Y-138940009D02*
X393635504Y-139130485D01*
X393635504Y-139130485D02*
X393635504Y-139416199D01*
X393635504Y-139416199D02*
X393730742Y-139606676D01*
X393730742Y-139606676D02*
X393921219Y-139701914D01*
X393921219Y-139701914D02*
X394968838Y-139701914D01*
X394873600Y-141416200D02*
X394968838Y-141225724D01*
X394968838Y-141225724D02*
X394968838Y-140844771D01*
X394968838Y-140844771D02*
X394873600Y-140654295D01*
X394873600Y-140654295D02*
X394683123Y-140559057D01*
X394683123Y-140559057D02*
X393921219Y-140559057D01*
X393921219Y-140559057D02*
X393730742Y-140654295D01*
X393730742Y-140654295D02*
X393635504Y-140844771D01*
X393635504Y-140844771D02*
X393635504Y-141225724D01*
X393635504Y-141225724D02*
X393730742Y-141416200D01*
X393730742Y-141416200D02*
X393921219Y-141511438D01*
X393921219Y-141511438D02*
X394111695Y-141511438D01*
X394111695Y-141511438D02*
X394302171Y-140559057D01*
X394968838Y-142368581D02*
X393635504Y-142368581D01*
X393825980Y-142368581D02*
X393730742Y-142463819D01*
X393730742Y-142463819D02*
X393635504Y-142654295D01*
X393635504Y-142654295D02*
X393635504Y-142940010D01*
X393635504Y-142940010D02*
X393730742Y-143130486D01*
X393730742Y-143130486D02*
X393921219Y-143225724D01*
X393921219Y-143225724D02*
X394968838Y-143225724D01*
X393921219Y-143225724D02*
X393730742Y-143320962D01*
X393730742Y-143320962D02*
X393635504Y-143511438D01*
X393635504Y-143511438D02*
X393635504Y-143797152D01*
X393635504Y-143797152D02*
X393730742Y-143987629D01*
X393730742Y-143987629D02*
X393921219Y-144082867D01*
X393921219Y-144082867D02*
X394968838Y-144082867D01*
X394968838Y-145320962D02*
X394873600Y-145130486D01*
X394873600Y-145130486D02*
X394778361Y-145035248D01*
X394778361Y-145035248D02*
X394587885Y-144940010D01*
X394587885Y-144940010D02*
X394016457Y-144940010D01*
X394016457Y-144940010D02*
X393825980Y-145035248D01*
X393825980Y-145035248D02*
X393730742Y-145130486D01*
X393730742Y-145130486D02*
X393635504Y-145320962D01*
X393635504Y-145320962D02*
X393635504Y-145606677D01*
X393635504Y-145606677D02*
X393730742Y-145797153D01*
X393730742Y-145797153D02*
X393825980Y-145892391D01*
X393825980Y-145892391D02*
X394016457Y-145987629D01*
X394016457Y-145987629D02*
X394587885Y-145987629D01*
X394587885Y-145987629D02*
X394778361Y-145892391D01*
X394778361Y-145892391D02*
X394873600Y-145797153D01*
X394873600Y-145797153D02*
X394968838Y-145606677D01*
X394968838Y-145606677D02*
X394968838Y-145320962D01*
X394968838Y-146844772D02*
X393635504Y-146844772D01*
X394016457Y-146844772D02*
X393825980Y-146940010D01*
X393825980Y-146940010D02*
X393730742Y-147035248D01*
X393730742Y-147035248D02*
X393635504Y-147225724D01*
X393635504Y-147225724D02*
X393635504Y-147416201D01*
X393635504Y-147892391D02*
X394968838Y-148368581D01*
X393635504Y-148844772D02*
X394968838Y-148368581D01*
X394968838Y-148368581D02*
X395445028Y-148178105D01*
X395445028Y-148178105D02*
X395540266Y-148082867D01*
X395540266Y-148082867D02*
X395635504Y-147892391D01*
X394968838Y-151130487D02*
X392968838Y-151130487D01*
X393730742Y-151130487D02*
X393635504Y-151320963D01*
X393635504Y-151320963D02*
X393635504Y-151701916D01*
X393635504Y-151701916D02*
X393730742Y-151892392D01*
X393730742Y-151892392D02*
X393825980Y-151987630D01*
X393825980Y-151987630D02*
X394016457Y-152082868D01*
X394016457Y-152082868D02*
X394587885Y-152082868D01*
X394587885Y-152082868D02*
X394778361Y-151987630D01*
X394778361Y-151987630D02*
X394873600Y-151892392D01*
X394873600Y-151892392D02*
X394968838Y-151701916D01*
X394968838Y-151701916D02*
X394968838Y-151320963D01*
X394968838Y-151320963D02*
X394873600Y-151130487D01*
X394968838Y-153225725D02*
X394873600Y-153035249D01*
X394873600Y-153035249D02*
X394778361Y-152940011D01*
X394778361Y-152940011D02*
X394587885Y-152844773D01*
X394587885Y-152844773D02*
X394016457Y-152844773D01*
X394016457Y-152844773D02*
X393825980Y-152940011D01*
X393825980Y-152940011D02*
X393730742Y-153035249D01*
X393730742Y-153035249D02*
X393635504Y-153225725D01*
X393635504Y-153225725D02*
X393635504Y-153511440D01*
X393635504Y-153511440D02*
X393730742Y-153701916D01*
X393730742Y-153701916D02*
X393825980Y-153797154D01*
X393825980Y-153797154D02*
X394016457Y-153892392D01*
X394016457Y-153892392D02*
X394587885Y-153892392D01*
X394587885Y-153892392D02*
X394778361Y-153797154D01*
X394778361Y-153797154D02*
X394873600Y-153701916D01*
X394873600Y-153701916D02*
X394968838Y-153511440D01*
X394968838Y-153511440D02*
X394968838Y-153225725D01*
X394968838Y-155606678D02*
X393921219Y-155606678D01*
X393921219Y-155606678D02*
X393730742Y-155511440D01*
X393730742Y-155511440D02*
X393635504Y-155320964D01*
X393635504Y-155320964D02*
X393635504Y-154940011D01*
X393635504Y-154940011D02*
X393730742Y-154749535D01*
X394873600Y-155606678D02*
X394968838Y-155416202D01*
X394968838Y-155416202D02*
X394968838Y-154940011D01*
X394968838Y-154940011D02*
X394873600Y-154749535D01*
X394873600Y-154749535D02*
X394683123Y-154654297D01*
X394683123Y-154654297D02*
X394492647Y-154654297D01*
X394492647Y-154654297D02*
X394302171Y-154749535D01*
X394302171Y-154749535D02*
X394206933Y-154940011D01*
X394206933Y-154940011D02*
X394206933Y-155416202D01*
X394206933Y-155416202D02*
X394111695Y-155606678D01*
X394968838Y-156559059D02*
X393635504Y-156559059D01*
X394016457Y-156559059D02*
X393825980Y-156654297D01*
X393825980Y-156654297D02*
X393730742Y-156749535D01*
X393730742Y-156749535D02*
X393635504Y-156940011D01*
X393635504Y-156940011D02*
X393635504Y-157130488D01*
X394968838Y-158654297D02*
X392968838Y-158654297D01*
X394873600Y-158654297D02*
X394968838Y-158463821D01*
X394968838Y-158463821D02*
X394968838Y-158082868D01*
X394968838Y-158082868D02*
X394873600Y-157892392D01*
X394873600Y-157892392D02*
X394778361Y-157797154D01*
X394778361Y-157797154D02*
X394587885Y-157701916D01*
X394587885Y-157701916D02*
X394016457Y-157701916D01*
X394016457Y-157701916D02*
X393825980Y-157797154D01*
X393825980Y-157797154D02*
X393730742Y-157892392D01*
X393730742Y-157892392D02*
X393635504Y-158082868D01*
X393635504Y-158082868D02*
X393635504Y-158463821D01*
X393635504Y-158463821D02*
X393730742Y-158654297D01*
X393635504Y-160844774D02*
X393635504Y-161606678D01*
X394968838Y-161130488D02*
X393254552Y-161130488D01*
X393254552Y-161130488D02*
X393064076Y-161225726D01*
X393064076Y-161225726D02*
X392968838Y-161416202D01*
X392968838Y-161416202D02*
X392968838Y-161606678D01*
X394968838Y-162559059D02*
X394873600Y-162368583D01*
X394873600Y-162368583D02*
X394778361Y-162273345D01*
X394778361Y-162273345D02*
X394587885Y-162178107D01*
X394587885Y-162178107D02*
X394016457Y-162178107D01*
X394016457Y-162178107D02*
X393825980Y-162273345D01*
X393825980Y-162273345D02*
X393730742Y-162368583D01*
X393730742Y-162368583D02*
X393635504Y-162559059D01*
X393635504Y-162559059D02*
X393635504Y-162844774D01*
X393635504Y-162844774D02*
X393730742Y-163035250D01*
X393730742Y-163035250D02*
X393825980Y-163130488D01*
X393825980Y-163130488D02*
X394016457Y-163225726D01*
X394016457Y-163225726D02*
X394587885Y-163225726D01*
X394587885Y-163225726D02*
X394778361Y-163130488D01*
X394778361Y-163130488D02*
X394873600Y-163035250D01*
X394873600Y-163035250D02*
X394968838Y-162844774D01*
X394968838Y-162844774D02*
X394968838Y-162559059D01*
X394968838Y-164082869D02*
X393635504Y-164082869D01*
X394016457Y-164082869D02*
X393825980Y-164178107D01*
X393825980Y-164178107D02*
X393730742Y-164273345D01*
X393730742Y-164273345D02*
X393635504Y-164463821D01*
X393635504Y-164463821D02*
X393635504Y-164654298D01*
X394968838Y-166844774D02*
X392968838Y-166844774D01*
X392968838Y-166844774D02*
X392968838Y-167320964D01*
X392968838Y-167320964D02*
X393064076Y-167606679D01*
X393064076Y-167606679D02*
X393254552Y-167797155D01*
X393254552Y-167797155D02*
X393445028Y-167892393D01*
X393445028Y-167892393D02*
X393825980Y-167987631D01*
X393825980Y-167987631D02*
X394111695Y-167987631D01*
X394111695Y-167987631D02*
X394492647Y-167892393D01*
X394492647Y-167892393D02*
X394683123Y-167797155D01*
X394683123Y-167797155D02*
X394873600Y-167606679D01*
X394873600Y-167606679D02*
X394968838Y-167320964D01*
X394968838Y-167320964D02*
X394968838Y-166844774D01*
X393921219Y-168844774D02*
X393921219Y-169511441D01*
X394968838Y-169797155D02*
X394968838Y-168844774D01*
X394968838Y-168844774D02*
X392968838Y-168844774D01*
X392968838Y-168844774D02*
X392968838Y-169797155D01*
X394778361Y-171797155D02*
X394873600Y-171701917D01*
X394873600Y-171701917D02*
X394968838Y-171416203D01*
X394968838Y-171416203D02*
X394968838Y-171225727D01*
X394968838Y-171225727D02*
X394873600Y-170940012D01*
X394873600Y-170940012D02*
X394683123Y-170749536D01*
X394683123Y-170749536D02*
X394492647Y-170654298D01*
X394492647Y-170654298D02*
X394111695Y-170559060D01*
X394111695Y-170559060D02*
X393825980Y-170559060D01*
X393825980Y-170559060D02*
X393445028Y-170654298D01*
X393445028Y-170654298D02*
X393254552Y-170749536D01*
X393254552Y-170749536D02*
X393064076Y-170940012D01*
X393064076Y-170940012D02*
X392968838Y-171225727D01*
X392968838Y-171225727D02*
X392968838Y-171416203D01*
X392968838Y-171416203D02*
X393064076Y-171701917D01*
X393064076Y-171701917D02*
X393159314Y-171797155D01*
X394968838Y-174178108D02*
X392968838Y-174178108D01*
X392968838Y-174178108D02*
X392968838Y-174940013D01*
X392968838Y-174940013D02*
X393064076Y-175130489D01*
X393064076Y-175130489D02*
X393159314Y-175225727D01*
X393159314Y-175225727D02*
X393349790Y-175320965D01*
X393349790Y-175320965D02*
X393635504Y-175320965D01*
X393635504Y-175320965D02*
X393825980Y-175225727D01*
X393825980Y-175225727D02*
X393921219Y-175130489D01*
X393921219Y-175130489D02*
X394016457Y-174940013D01*
X394016457Y-174940013D02*
X394016457Y-174178108D01*
X394968838Y-176178108D02*
X393635504Y-176178108D01*
X394016457Y-176178108D02*
X393825980Y-176273346D01*
X393825980Y-176273346D02*
X393730742Y-176368584D01*
X393730742Y-176368584D02*
X393635504Y-176559060D01*
X393635504Y-176559060D02*
X393635504Y-176749537D01*
X394968838Y-177701917D02*
X394873600Y-177511441D01*
X394873600Y-177511441D02*
X394778361Y-177416203D01*
X394778361Y-177416203D02*
X394587885Y-177320965D01*
X394587885Y-177320965D02*
X394016457Y-177320965D01*
X394016457Y-177320965D02*
X393825980Y-177416203D01*
X393825980Y-177416203D02*
X393730742Y-177511441D01*
X393730742Y-177511441D02*
X393635504Y-177701917D01*
X393635504Y-177701917D02*
X393635504Y-177987632D01*
X393635504Y-177987632D02*
X393730742Y-178178108D01*
X393730742Y-178178108D02*
X393825980Y-178273346D01*
X393825980Y-178273346D02*
X394016457Y-178368584D01*
X394016457Y-178368584D02*
X394587885Y-178368584D01*
X394587885Y-178368584D02*
X394778361Y-178273346D01*
X394778361Y-178273346D02*
X394873600Y-178178108D01*
X394873600Y-178178108D02*
X394968838Y-177987632D01*
X394968838Y-177987632D02*
X394968838Y-177701917D01*
X393635504Y-178940013D02*
X393635504Y-179701917D01*
X394968838Y-179225727D02*
X393254552Y-179225727D01*
X393254552Y-179225727D02*
X393064076Y-179320965D01*
X393064076Y-179320965D02*
X392968838Y-179511441D01*
X392968838Y-179511441D02*
X392968838Y-179701917D01*
X394873600Y-181130489D02*
X394968838Y-180940013D01*
X394968838Y-180940013D02*
X394968838Y-180559060D01*
X394968838Y-180559060D02*
X394873600Y-180368584D01*
X394873600Y-180368584D02*
X394683123Y-180273346D01*
X394683123Y-180273346D02*
X393921219Y-180273346D01*
X393921219Y-180273346D02*
X393730742Y-180368584D01*
X393730742Y-180368584D02*
X393635504Y-180559060D01*
X393635504Y-180559060D02*
X393635504Y-180940013D01*
X393635504Y-180940013D02*
X393730742Y-181130489D01*
X393730742Y-181130489D02*
X393921219Y-181225727D01*
X393921219Y-181225727D02*
X394111695Y-181225727D01*
X394111695Y-181225727D02*
X394302171Y-180273346D01*
X394873600Y-181987632D02*
X394968838Y-182178108D01*
X394968838Y-182178108D02*
X394968838Y-182559060D01*
X394968838Y-182559060D02*
X394873600Y-182749537D01*
X394873600Y-182749537D02*
X394683123Y-182844775D01*
X394683123Y-182844775D02*
X394587885Y-182844775D01*
X394587885Y-182844775D02*
X394397409Y-182749537D01*
X394397409Y-182749537D02*
X394302171Y-182559060D01*
X394302171Y-182559060D02*
X394302171Y-182273346D01*
X394302171Y-182273346D02*
X394206933Y-182082870D01*
X394206933Y-182082870D02*
X394016457Y-181987632D01*
X394016457Y-181987632D02*
X393921219Y-181987632D01*
X393921219Y-181987632D02*
X393730742Y-182082870D01*
X393730742Y-182082870D02*
X393635504Y-182273346D01*
X393635504Y-182273346D02*
X393635504Y-182559060D01*
X393635504Y-182559060D02*
X393730742Y-182749537D01*
X394873600Y-183606680D02*
X394968838Y-183797156D01*
X394968838Y-183797156D02*
X394968838Y-184178108D01*
X394968838Y-184178108D02*
X394873600Y-184368585D01*
X394873600Y-184368585D02*
X394683123Y-184463823D01*
X394683123Y-184463823D02*
X394587885Y-184463823D01*
X394587885Y-184463823D02*
X394397409Y-184368585D01*
X394397409Y-184368585D02*
X394302171Y-184178108D01*
X394302171Y-184178108D02*
X394302171Y-183892394D01*
X394302171Y-183892394D02*
X394206933Y-183701918D01*
X394206933Y-183701918D02*
X394016457Y-183606680D01*
X394016457Y-183606680D02*
X393921219Y-183606680D01*
X393921219Y-183606680D02*
X393730742Y-183701918D01*
X393730742Y-183701918D02*
X393635504Y-183892394D01*
X393635504Y-183892394D02*
X393635504Y-184178108D01*
X393635504Y-184178108D02*
X393730742Y-184368585D01*
X394968838Y-185320966D02*
X393635504Y-185320966D01*
X392968838Y-185320966D02*
X393064076Y-185225728D01*
X393064076Y-185225728D02*
X393159314Y-185320966D01*
X393159314Y-185320966D02*
X393064076Y-185416204D01*
X393064076Y-185416204D02*
X392968838Y-185320966D01*
X392968838Y-185320966D02*
X393159314Y-185320966D01*
X394968838Y-186559061D02*
X394873600Y-186368585D01*
X394873600Y-186368585D02*
X394778361Y-186273347D01*
X394778361Y-186273347D02*
X394587885Y-186178109D01*
X394587885Y-186178109D02*
X394016457Y-186178109D01*
X394016457Y-186178109D02*
X393825980Y-186273347D01*
X393825980Y-186273347D02*
X393730742Y-186368585D01*
X393730742Y-186368585D02*
X393635504Y-186559061D01*
X393635504Y-186559061D02*
X393635504Y-186844776D01*
X393635504Y-186844776D02*
X393730742Y-187035252D01*
X393730742Y-187035252D02*
X393825980Y-187130490D01*
X393825980Y-187130490D02*
X394016457Y-187225728D01*
X394016457Y-187225728D02*
X394587885Y-187225728D01*
X394587885Y-187225728D02*
X394778361Y-187130490D01*
X394778361Y-187130490D02*
X394873600Y-187035252D01*
X394873600Y-187035252D02*
X394968838Y-186844776D01*
X394968838Y-186844776D02*
X394968838Y-186559061D01*
X393635504Y-188082871D02*
X394968838Y-188082871D01*
X393825980Y-188082871D02*
X393730742Y-188178109D01*
X393730742Y-188178109D02*
X393635504Y-188368585D01*
X393635504Y-188368585D02*
X393635504Y-188654300D01*
X393635504Y-188654300D02*
X393730742Y-188844776D01*
X393730742Y-188844776D02*
X393921219Y-188940014D01*
X393921219Y-188940014D02*
X394968838Y-188940014D01*
X394968838Y-190749538D02*
X393921219Y-190749538D01*
X393921219Y-190749538D02*
X393730742Y-190654300D01*
X393730742Y-190654300D02*
X393635504Y-190463824D01*
X393635504Y-190463824D02*
X393635504Y-190082871D01*
X393635504Y-190082871D02*
X393730742Y-189892395D01*
X394873600Y-190749538D02*
X394968838Y-190559062D01*
X394968838Y-190559062D02*
X394968838Y-190082871D01*
X394968838Y-190082871D02*
X394873600Y-189892395D01*
X394873600Y-189892395D02*
X394683123Y-189797157D01*
X394683123Y-189797157D02*
X394492647Y-189797157D01*
X394492647Y-189797157D02*
X394302171Y-189892395D01*
X394302171Y-189892395D02*
X394206933Y-190082871D01*
X394206933Y-190082871D02*
X394206933Y-190559062D01*
X394206933Y-190559062D02*
X394111695Y-190749538D01*
X394968838Y-191987633D02*
X394873600Y-191797157D01*
X394873600Y-191797157D02*
X394683123Y-191701919D01*
X394683123Y-191701919D02*
X392968838Y-191701919D01*
X395730742Y-194844777D02*
X395635504Y-194749538D01*
X395635504Y-194749538D02*
X395349790Y-194559062D01*
X395349790Y-194559062D02*
X395159314Y-194463824D01*
X395159314Y-194463824D02*
X394873600Y-194368586D01*
X394873600Y-194368586D02*
X394397409Y-194273348D01*
X394397409Y-194273348D02*
X394016457Y-194273348D01*
X394016457Y-194273348D02*
X393540266Y-194368586D01*
X393540266Y-194368586D02*
X393254552Y-194463824D01*
X393254552Y-194463824D02*
X393064076Y-194559062D01*
X393064076Y-194559062D02*
X392778361Y-194749538D01*
X392778361Y-194749538D02*
X392683123Y-194844777D01*
X394873600Y-195511443D02*
X394968838Y-195701919D01*
X394968838Y-195701919D02*
X394968838Y-196082871D01*
X394968838Y-196082871D02*
X394873600Y-196273348D01*
X394873600Y-196273348D02*
X394683123Y-196368586D01*
X394683123Y-196368586D02*
X394587885Y-196368586D01*
X394587885Y-196368586D02*
X394397409Y-196273348D01*
X394397409Y-196273348D02*
X394302171Y-196082871D01*
X394302171Y-196082871D02*
X394302171Y-195797157D01*
X394302171Y-195797157D02*
X394206933Y-195606681D01*
X394206933Y-195606681D02*
X394016457Y-195511443D01*
X394016457Y-195511443D02*
X393921219Y-195511443D01*
X393921219Y-195511443D02*
X393730742Y-195606681D01*
X393730742Y-195606681D02*
X393635504Y-195797157D01*
X393635504Y-195797157D02*
X393635504Y-196082871D01*
X393635504Y-196082871D02*
X393730742Y-196273348D01*
X393635504Y-197225729D02*
X395635504Y-197225729D01*
X393730742Y-197225729D02*
X393635504Y-197416205D01*
X393635504Y-197416205D02*
X393635504Y-197797158D01*
X393635504Y-197797158D02*
X393730742Y-197987634D01*
X393730742Y-197987634D02*
X393825980Y-198082872D01*
X393825980Y-198082872D02*
X394016457Y-198178110D01*
X394016457Y-198178110D02*
X394587885Y-198178110D01*
X394587885Y-198178110D02*
X394778361Y-198082872D01*
X394778361Y-198082872D02*
X394873600Y-197987634D01*
X394873600Y-197987634D02*
X394968838Y-197797158D01*
X394968838Y-197797158D02*
X394968838Y-197416205D01*
X394968838Y-197416205D02*
X394873600Y-197225729D01*
X394968838Y-199035253D02*
X393635504Y-199035253D01*
X392968838Y-199035253D02*
X393064076Y-198940015D01*
X393064076Y-198940015D02*
X393159314Y-199035253D01*
X393159314Y-199035253D02*
X393064076Y-199130491D01*
X393064076Y-199130491D02*
X392968838Y-199035253D01*
X392968838Y-199035253D02*
X393159314Y-199035253D01*
X393635504Y-199987634D02*
X394968838Y-199987634D01*
X393825980Y-199987634D02*
X393730742Y-200082872D01*
X393730742Y-200082872D02*
X393635504Y-200273348D01*
X393635504Y-200273348D02*
X393635504Y-200559063D01*
X393635504Y-200559063D02*
X393730742Y-200749539D01*
X393730742Y-200749539D02*
X393921219Y-200844777D01*
X393921219Y-200844777D02*
X394968838Y-200844777D01*
X393159314Y-203225730D02*
X393064076Y-203320968D01*
X393064076Y-203320968D02*
X392968838Y-203511444D01*
X392968838Y-203511444D02*
X392968838Y-203987635D01*
X392968838Y-203987635D02*
X393064076Y-204178111D01*
X393064076Y-204178111D02*
X393159314Y-204273349D01*
X393159314Y-204273349D02*
X393349790Y-204368587D01*
X393349790Y-204368587D02*
X393540266Y-204368587D01*
X393540266Y-204368587D02*
X393825980Y-204273349D01*
X393825980Y-204273349D02*
X394968838Y-203130492D01*
X394968838Y-203130492D02*
X394968838Y-204368587D01*
X395730742Y-205035254D02*
X395635504Y-205130492D01*
X395635504Y-205130492D02*
X395349790Y-205320968D01*
X395349790Y-205320968D02*
X395159314Y-205416206D01*
X395159314Y-205416206D02*
X394873600Y-205511444D01*
X394873600Y-205511444D02*
X394397409Y-205606682D01*
X394397409Y-205606682D02*
X394016457Y-205606682D01*
X394016457Y-205606682D02*
X393540266Y-205511444D01*
X393540266Y-205511444D02*
X393254552Y-205416206D01*
X393254552Y-205416206D02*
X393064076Y-205320968D01*
X393064076Y-205320968D02*
X392778361Y-205130492D01*
X392778361Y-205130492D02*
X392683123Y-205035254D01*
M02*
