M48
; DRILL file {KiCad 8.0.8} date 2025-08-14T20:46:21+0200
; FORMAT={-:-/ absolute / inch / decimal}
; #@! TF.CreationDate,2025-08-14T20:46:21+02:00
; #@! TF.GenerationSoftware,Kicad,Pcbnew,8.0.8
; #@! TF.FileFunction,Plated,1,2,PTH
FMAT,2
INCH
; #@! TA.AperFunction,Plated,PTH,ViaDrill
T1C0.0118
; #@! TA.AperFunction,Plated,PTH,ViaDrill
T2C0.0197
; #@! TA.AperFunction,Plated,PTH,ViaDrill
T3C0.0236
; #@! TA.AperFunction,Plated,PTH,ComponentDrill
T4C0.0315
; #@! TA.AperFunction,Plated,PTH,ComponentDrill
T5C0.0394
%
G90
G05
T1
X10.99Y-5.275
X11.116Y-5.728
X11.146Y-5.214
X11.148Y-7.242
X11.158Y-6.152
X11.172Y-5.698
X11.173Y-7.615
X11.18Y-7.45
X11.204Y-7.536
X11.226Y-4.88
X11.2597Y-4.9917
X11.388Y-5.69
X11.39Y-6.22
X11.402Y-6.042
X11.406Y-5.062
X11.41Y-4.682
X11.4932Y-6.075
X11.5168Y-6.898
X11.5331Y-6.925
X11.575Y-7.875
X11.5803Y-6.075
X11.6Y-7.0
X11.6Y-8.4
X11.64Y-7.13
X11.6616Y-4.7717
X11.669Y-6.147
X11.686Y-5.496
X11.7Y-8.425
X11.7096Y-5.604
X11.725Y-5.7
X11.726Y-6.134
X11.75Y-6.975
X11.8Y-5.748
X11.8Y-8.45
X11.802Y-5.146
X11.802Y-6.078
X11.8331Y-5.28
X11.842Y-4.56
X11.896Y-6.068
X11.9Y-6.575
X11.9Y-8.4827
X11.922Y-5.178
X11.9681Y-5.614
X11.992Y-6.062
X12.0Y-4.945
X12.0Y-8.5063
X12.0433Y-6.32
X12.0634Y-5.662
X12.092Y-5.6856
X12.1Y-4.875
X12.1Y-8.5299
X12.104Y-6.028
X12.15Y-7.8
X12.1681Y-4.912
X12.2Y-6.025
X12.202Y-5.3036
X12.212Y-6.178
X12.225Y-4.875
X12.2264Y-6.1
X12.25Y-7.7
X12.268Y-5.472
X12.2986Y-5.976
X12.302Y-5.196
X12.35Y-8.07
X12.392Y-6.282
X12.396Y-5.6856
X12.4Y-6.102
X12.4Y-7.4
X12.41Y-4.6
X12.4118Y-5.1988
X12.416Y-5.23
X12.44Y-7.6433
X12.454Y-4.766
X12.4634Y-6.062
X12.464Y-5.306
X12.47Y-5.26
X12.48Y-5.475
X12.4838Y-5.056
X12.5Y-6.5
X12.5Y-7.13
X12.51Y-6.236
X12.5129Y-4.904
X12.514Y-5.032
X12.53Y-7.4016
X12.5366Y-4.872
X12.5366Y-5.006
X12.5366Y-6.1215
X12.575Y-6.95
X12.625Y-7.675
X12.636Y-4.7634
X12.658Y-7.756
X12.698Y-6.162
X12.704Y-5.886
X12.755Y-5.51
X12.798Y-6.032
X12.81Y-7.1567
X12.848Y-4.8864
X12.868Y-5.8364
X12.886Y-6.09
X12.894Y-5.422
X12.896Y-4.622
X12.91Y-5.4928
X12.91Y-5.775
X12.91Y-7.13
X12.944Y-4.99
X12.95Y-8.175
X12.956Y-5.734
X13.01Y-5.55
X13.05Y-8.15
X13.053Y-6.182
X13.098Y-4.7276
X13.0984Y-5.3236
X13.11Y-5.4366
X13.11Y-5.86
X13.114Y-4.946
X13.122Y-5.348
X13.124Y-5.984
X13.15Y-5.654
X13.15Y-8.125
X13.153Y-6.153
X13.162Y-5.1884
X13.22Y-5.216
X13.25Y-5.388
X13.252Y-5.0805
X13.256Y-6.06
X13.266Y-5.79
X13.29Y-5.206
X13.3Y-5.002
X13.31Y-4.532
X13.3353Y-5.8927
X13.35Y-7.95
X13.357Y-6.0331
X13.364Y-5.25
X13.366Y-5.6516
X13.375Y-8.1
X13.398Y-5.152
X13.4293Y-5.5442
X13.43Y-4.962
X13.45Y-7.925
X13.452Y-5.566
X13.464Y-5.0423
X13.4726Y-5.978
X13.5Y-7.7
X13.5057Y-5.058
X13.52Y-4.9796
X13.5293Y-5.964
X13.55Y-7.925
X13.556Y-5.748
X13.6Y-7.875
X13.606Y-4.9336
X13.65Y-7.9
X13.664Y-5.7264
X13.6953Y-4.8838
X13.7017Y-5.214
X13.744Y-6.12
X13.75Y-7.4016
X13.7619Y-5.6601
X13.766Y-4.794
X13.7712Y-5.7028
X13.7713Y-4.5914
X13.8Y-7.875
X13.8024Y-5.71
X13.8155Y-4.887
X13.822Y-6.0204
X13.8322Y-5.7201
X13.8398Y-4.9071
X13.8457Y-5.5566
X13.85Y-6.046
X13.85Y-6.4974
X13.8614Y-4.93
X13.8626Y-5.7283
X13.8654Y-4.786
X13.87Y-6.153
X13.8763Y-5.3716
X13.8811Y-4.9546
X13.8932Y-5.0335
X13.9Y-7.825
X13.9078Y-5.3728
X13.92Y-5.05
X13.956Y-5.153
X13.96Y-7.7421
X13.975Y-5.08
X13.982Y-5.29
X13.984Y-5.8396
X13.9874Y-5.7276
X13.998Y-5.248
X14.0Y-6.575
X14.0071Y-4.7724
X14.008Y-5.862
X14.012Y-5.8944
X14.0268Y-5.104
X14.048Y-5.1904
X14.052Y-5.912
X14.0639Y-5.0106
X14.074Y-5.302
X14.078Y-5.94
X14.1055Y-5.906
X14.1213Y-4.7564
X14.1217Y-4.97
X14.125Y-5.54
X14.125Y-7.725
X14.1373Y-5.511
X14.14Y-6.17
X14.1433Y-5.956
X14.146Y-4.95
X14.15Y-7.7
X14.17Y-5.3491
X14.1838Y-5.4978
X14.2Y-7.1567
X14.2Y-7.675
X14.215Y-5.4741
X14.2209Y-5.4432
X14.24Y-4.838
X14.25Y-5.42
X14.25Y-7.1331
X14.25Y-7.65
X14.27Y-4.95
X14.275Y-7.8
X14.3Y-7.875
X14.34Y-4.9657
X14.34Y-7.4
X14.35Y-7.625
X14.4Y-7.825
X14.4118Y-5.0068
X14.425Y-7.7551
X14.4332Y-4.6213
X14.4332Y-4.7668
X14.45Y-7.625
X14.5Y-7.75
X14.5114Y-4.8356
X14.55Y-6.925
X14.58Y-5.05
X14.59Y-6.025
X14.6Y-6.056
X14.6Y-7.725
X14.6Y-8.175
X14.6164Y-5.112
X14.625Y-6.95
X14.64Y-5.075
X14.652Y-6.0
X14.666Y-4.7936
X14.6718Y-5.6497
X14.6872Y-4.7703
X14.6916Y-4.6724
X14.6973Y-5.6733
X14.7Y-6.135
X14.7Y-7.7051
X14.7Y-8.15
X14.719Y-5.6962
X14.734Y-5.266
X14.745Y-5.995
X14.75Y-5.7211
X14.76Y-4.915
X14.762Y-5.5529
X14.782Y-4.7427
X14.7838Y-5.7448
X14.784Y-5.3964
X14.7996Y-4.9514
X14.8Y-5.0301
X14.8Y-7.7
X14.8Y-8.125
X14.805Y-6.13
X14.8122Y-5.3824
X14.815Y-5.7493
X14.8382Y-5.0432
X14.845Y-6.0324
X14.85Y-6.975
X14.855Y-5.1357
X14.88Y-5.0884
X14.895Y-6.155
X14.9Y-7.675
X14.9Y-8.1
X14.908Y-5.344
X14.91Y-5.074
X14.916Y-4.736
X14.935Y-5.11
X14.9354Y-5.842
X14.948Y-5.234
X14.95Y-7.975
X14.9551Y-5.874
X14.9748Y-5.9
X14.982Y-5.042
X14.9945Y-5.9334
X15.0Y-7.65
X15.0Y-7.925
X15.004Y-4.736
X15.006Y-5.288
X15.01Y-6.18
X15.0142Y-5.98
X15.015Y-6.5766
X15.024Y-4.9986
X15.035Y-5.545
X15.05Y-7.95
X15.06Y-4.965
X15.0602Y-5.5261
X15.065Y-5.495
X15.082Y-5.142
X15.0928Y-6.1643
X15.095Y-5.485
X15.1Y-6.1336
X15.1Y-7.4
X15.1Y-7.9
X15.1024Y-4.6876
X15.1139Y-5.4598
X15.13Y-4.89
X15.1331Y-6.1151
X15.135Y-5.42
X15.1441Y-6.0855
X15.155Y-6.056
X15.175Y-4.905
X15.2Y-6.5
X15.2022Y-4.935
X15.23Y-6.575
X15.25Y-6.925
X15.4Y-7.0
X15.47Y-4.786
T2
X11.3028Y-6.6
X11.425Y-5.4
X11.45Y-5.975
X11.65Y-5.35
X11.75Y-5.1
X11.8882Y-5.55
X12.3Y-5.35
X12.325Y-5.6
X12.4Y-5.1
X12.7Y-4.65
X12.75Y-5.35
X12.75Y-5.925
X12.7913Y-5.3
T3
X10.72Y-8.575
X10.72Y-8.925
X10.78Y-8.625
X10.78Y-8.86
X10.814Y-7.764
X11.04Y-5.586
X11.275Y-8.5738
X11.35Y-6.826
X11.35Y-7.76
X11.475Y-8.625
X11.9Y-5.725
X12.5248Y-5.1
X12.5248Y-5.4
X12.5248Y-5.725
X12.6Y-8.925
X12.604Y-6.675
X12.8822Y-4.822
X12.884Y-5.098
X13.6Y-8.9122
X13.626Y-4.7814
X13.692Y-4.654
X13.92Y-4.55
X14.1944Y-4.7197
X15.1059Y-4.7411
X15.276Y-4.754
X15.288Y-4.562
X15.3Y-8.625
T4
X10.715Y-5.2
X10.715Y-5.6
X10.725Y-5.95
X10.725Y-6.55
X10.7941Y-6.725
X10.85Y-4.75
X10.85Y-4.85
X10.85Y-4.95
X10.85Y-5.05
X10.8516Y-5.2
X10.991Y-6.725
X11.025Y-5.95
X11.025Y-6.55
X11.0484Y-5.2
X11.15Y-4.75
X11.15Y-4.85
X11.15Y-4.95
X11.15Y-5.05
X11.275Y-5.4016
X11.275Y-5.5984
X11.2781Y-8.425
X11.35Y-7.3031
X11.35Y-7.5
X11.45Y-6.4266
X11.45Y-6.6234
X11.475Y-8.425
X11.5Y-4.8
X11.5Y-4.9
X11.5Y-5.0
X11.5Y-5.1
X11.5Y-5.2
X11.5Y-5.3
X11.5Y-5.4
X11.5Y-5.5
X11.5Y-5.6
X11.5Y-5.7
X11.5Y-5.8
X11.5Y-7.3
X11.5Y-7.6
X11.5998Y-7.2004
X11.5998Y-7.5004
X11.6Y-4.7
X11.6Y-4.8
X11.6Y-4.9
X11.6Y-5.0
X11.6Y-5.1
X11.6Y-5.2
X11.6Y-5.3
X11.6Y-5.4
X11.6Y-5.5
X11.6Y-5.6
X11.6Y-5.7
X11.6Y-5.8
X11.6Y-5.9
X11.6Y-6.375
X11.6Y-6.675
X11.6Y-7.3
X11.6Y-7.6
X11.6998Y-7.2004
X11.6998Y-7.5004
X11.7Y-4.7
X11.7Y-4.8
X11.7Y-5.8
X11.7Y-5.9
X11.7Y-6.375
X11.7Y-6.675
X11.7Y-7.3
X11.7Y-7.6
X11.7998Y-7.2004
X11.7998Y-7.5004
X11.8Y-4.7
X11.8Y-4.8
X11.8Y-5.8
X11.8Y-5.9
X11.8Y-6.375
X11.8Y-6.675
X11.8Y-7.3
X11.8Y-7.6
X11.8998Y-7.2004
X11.8998Y-7.5004
X11.9Y-4.7
X11.9Y-4.8
X11.9Y-5.8
X11.9Y-5.9
X11.9Y-6.375
X11.9Y-6.675
X11.9Y-7.3
X11.9Y-7.6
X11.9998Y-7.2004
X11.9998Y-7.5004
X12.0Y-4.7
X12.0Y-4.8
X12.0Y-5.8
X12.0Y-5.9
X12.0Y-6.375
X12.0Y-6.675
X12.0Y-7.3
X12.0Y-7.6
X12.0998Y-7.2004
X12.0998Y-7.5004
X12.1Y-4.7
X12.1Y-4.8
X12.1Y-5.8
X12.1Y-5.9
X12.1Y-6.375
X12.1Y-6.675
X12.1Y-7.3
X12.1Y-7.6
X12.1998Y-7.2004
X12.1998Y-7.5004
X12.2Y-4.7
X12.2Y-4.8
X12.2Y-5.8
X12.2Y-5.9
X12.2Y-6.375
X12.2Y-6.675
X12.2Y-7.3
X12.2Y-7.6
X12.2998Y-7.2004
X12.2998Y-7.5004
X12.3Y-4.7
X12.3Y-4.8
X12.3Y-5.8
X12.3Y-5.9
X12.3Y-6.375
X12.3Y-6.675
X12.3Y-7.3
X12.3Y-7.6
X12.3998Y-7.2004
X12.3998Y-7.5004
X12.4Y-4.7
X12.4Y-4.8
X12.4Y-5.8
X12.4Y-5.9
X12.4Y-6.375
X12.4Y-6.675
X12.4Y-7.3
X12.4Y-7.6
X12.4998Y-7.2004
X12.4998Y-7.5004
X12.5Y-4.7
X12.5Y-4.8
X12.5Y-5.8
X12.5Y-5.9
X12.5Y-6.375
X12.5Y-6.675
X12.6Y-4.7
X12.6Y-4.8
X12.6Y-4.9
X12.6Y-5.0
X12.6Y-5.1
X12.6Y-5.2
X12.6Y-5.3
X12.6Y-5.4
X12.6Y-5.5
X12.6Y-5.6
X12.6Y-5.7
X12.6Y-5.8
X12.6Y-5.9
X12.7Y-4.8
X12.7Y-4.9
X12.7Y-5.0
X12.7Y-5.1
X12.7Y-5.2
X12.7Y-5.3
X12.7Y-5.4
X12.7Y-5.5
X12.7Y-5.6
X12.7Y-5.7
X12.7Y-5.8
X12.71Y-7.3
X12.71Y-7.4969
X12.75Y-6.4266
X12.75Y-6.6234
X12.85Y-7.3
X12.85Y-7.6
X12.95Y-6.375
X12.95Y-6.675
X12.95Y-7.2
X12.95Y-7.3
X12.95Y-7.5
X12.95Y-7.6
X13.025Y-4.6
X13.025Y-5.0
X13.05Y-6.375
X13.05Y-6.675
X13.05Y-7.2
X13.05Y-7.3
X13.05Y-7.5
X13.05Y-7.6
X13.15Y-6.375
X13.15Y-6.675
X13.15Y-7.2
X13.15Y-7.3
X13.15Y-7.5
X13.15Y-7.6
X13.25Y-6.375
X13.25Y-6.675
X13.25Y-7.2
X13.25Y-7.3
X13.25Y-7.5
X13.25Y-7.6
X13.35Y-6.375
X13.35Y-6.675
X13.35Y-7.2
X13.35Y-7.3
X13.35Y-7.5
X13.35Y-7.6
X13.45Y-6.375
X13.45Y-6.675
X13.45Y-7.2
X13.45Y-7.3
X13.45Y-7.5
X13.45Y-7.6
X13.55Y-6.375
X13.55Y-6.675
X13.55Y-7.2
X13.55Y-7.3
X13.55Y-7.5
X13.55Y-7.6
X13.65Y-6.375
X13.65Y-6.675
X13.65Y-7.2
X13.65Y-7.3
X13.65Y-7.5
X13.65Y-7.6
X13.75Y-6.375
X13.75Y-6.675
X13.75Y-7.2
X13.75Y-7.3
X13.75Y-7.5
X13.75Y-7.6
X13.79Y-4.66
X13.85Y-6.375
X13.85Y-6.675
X13.85Y-7.2
X13.85Y-7.5
X13.9869Y-4.66
X14.04Y-7.3031
X14.04Y-7.5
X14.1Y-6.4266
X14.1Y-6.6234
X14.2Y-7.3
X14.2Y-7.6
X14.3Y-6.375
X14.3Y-6.675
X14.3Y-7.2
X14.3Y-7.3
X14.3Y-7.5
X14.3Y-7.6
X14.4Y-6.375
X14.4Y-6.675
X14.4Y-7.2
X14.4Y-7.3
X14.4Y-7.5
X14.4Y-7.6
X14.5Y-6.375
X14.5Y-6.675
X14.5Y-7.2
X14.5Y-7.3
X14.5Y-7.5
X14.5Y-7.6
X14.6Y-6.375
X14.6Y-6.675
X14.6Y-7.2
X14.6Y-7.3
X14.6Y-7.5
X14.6Y-7.6
X14.7Y-6.375
X14.7Y-6.675
X14.7Y-7.2
X14.7Y-7.3
X14.7Y-7.5
X14.7Y-7.6
X14.8Y-6.375
X14.8Y-6.675
X14.8Y-7.2
X14.8Y-7.3
X14.8Y-7.5
X14.8Y-7.6
X14.9Y-6.375
X14.9Y-6.675
X14.9Y-7.2
X14.9Y-7.3
X14.9Y-7.5
X14.9Y-7.6
X15.0Y-6.375
X15.0Y-6.675
X15.0Y-7.2
X15.0Y-7.3
X15.0Y-7.5
X15.0Y-7.6
X15.1Y-6.375
X15.1Y-6.675
X15.1Y-7.2
X15.1Y-7.3
X15.1Y-7.5
X15.1Y-7.6
X15.2Y-6.375
X15.2Y-6.675
X15.2Y-7.2
X15.2Y-7.5
X15.275Y-4.9
X15.275Y-5.0969
X15.425Y-5.1
X15.425Y-5.5
T5
X10.7Y-9.5
X10.725Y-4.75
X10.725Y-5.775
X10.726Y-4.878
X10.85Y-7.25
X10.85Y-7.35
X10.85Y-7.45
X10.85Y-7.55
X10.85Y-7.65
X10.885Y-5.435
X10.885Y-5.535
X10.9Y-8.7
X10.9Y-8.8
X10.95Y-7.25
X10.95Y-7.35
X10.95Y-7.45
X10.95Y-7.55
X10.95Y-7.65
X11.0Y-8.7
X11.0Y-8.8
X11.07Y-8.35
X11.1Y-8.7
X11.1Y-8.8
X11.18Y-5.785
X11.2Y-8.7
X11.2Y-8.8
X11.288Y-4.93
X11.298Y-4.8
X11.298Y-5.122
X11.3Y-8.7
X11.3Y-8.8
X11.4Y-8.7
X11.4Y-8.8
X11.5Y-8.7
X11.5Y-8.8
X11.6Y-8.7
X11.6Y-8.8
X11.7Y-6.25
X11.7Y-7.05
X11.7Y-8.7
X11.7Y-8.8
X11.8Y-6.25
X11.8Y-7.05
X11.8Y-8.7
X11.8Y-8.8
X11.9Y-6.25
X11.9Y-7.05
X11.9Y-8.7
X11.9Y-8.8
X12.0Y-6.25
X12.0Y-7.05
X12.0Y-8.7
X12.0Y-8.8
X12.1Y-6.25
X12.1Y-7.05
X12.1Y-8.7
X12.1Y-8.8
X12.2Y-6.25
X12.2Y-7.05
X12.2Y-8.7
X12.2Y-8.8
X12.3Y-8.7
X12.3Y-8.8
X12.3Y-9.5
X12.4Y-7.975
X12.4Y-9.5
X12.5Y-7.05
X12.5Y-8.7
X12.5Y-8.8
X12.6Y-8.7
X12.6Y-8.8
X12.7Y-8.7
X12.7Y-8.8
X12.8Y-8.4
X12.8Y-8.7
X12.8Y-8.8
X12.89Y-6.2
X12.9Y-8.4
X12.9Y-8.7
X12.9Y-8.8
X13.0Y-8.4
X13.0Y-8.7
X13.0Y-8.8
X13.05Y-7.05
X13.055Y-6.25
X13.1Y-8.4
X13.1Y-8.7
X13.1Y-8.8
X13.15Y-7.05
X13.153Y-6.25
X13.175Y-5.1
X13.175Y-5.9
X13.18Y-4.7
X13.18Y-4.8
X13.198Y-5.796
X13.2Y-8.4
X13.2Y-8.7
X13.2Y-8.8
X13.22Y-5.615
X13.25Y-7.05
X13.252Y-6.25
X13.3Y-8.025
X13.3Y-8.4
X13.3Y-8.7
X13.3Y-8.8
X13.35Y-6.25
X13.35Y-7.05
X13.4Y-8.7
X13.4Y-8.8
X13.449Y-6.25
X13.45Y-7.05
X13.5Y-8.025
X13.5Y-8.7
X13.5Y-8.8
X13.549Y-6.25
X13.55Y-7.05
X13.6Y-8.025
X13.6Y-8.7
X13.6Y-8.8
X13.648Y-6.25
X13.65Y-7.05
X13.7Y-8.7
X13.7Y-8.8
X13.745Y-6.25
X13.75Y-7.05
X13.8Y-8.4
X13.8Y-8.7
X13.8Y-8.8
X13.9Y-8.4
X13.9Y-8.7
X13.9Y-8.8
X13.92Y-5.796
X13.975Y-6.1
X14.0Y-8.025
X14.0Y-8.4
X14.0Y-8.7
X14.0Y-8.8
X14.1Y-6.025
X14.1Y-8.4
X14.1Y-8.7
X14.1Y-8.8
X14.175Y-4.65
X14.2Y-5.748
X14.2Y-7.05
X14.2Y-8.025
X14.2Y-8.4
X14.2Y-8.7
X14.2Y-8.8
X14.3Y-7.05
X14.3Y-8.025
X14.3Y-8.4
X14.3Y-8.7
X14.3Y-8.8
X14.4Y-7.05
X14.4Y-8.025
X14.4Y-8.4
X14.4Y-8.7
X14.4Y-8.8
X14.456Y-5.18
X14.458Y-5.328
X14.5Y-6.25
X14.5Y-7.05
X14.5Y-8.025
X14.5Y-8.4
X14.5Y-8.7
X14.5Y-8.8
X14.558Y-4.812
X14.6Y-6.25
X14.6Y-7.05
X14.6Y-8.025
X14.6Y-8.4
X14.6Y-8.7
X14.6Y-8.8
X14.7Y-6.25
X14.7Y-7.05
X14.7Y-8.4
X14.7Y-8.7
X14.7Y-8.8
X14.8Y-6.25
X14.8Y-7.05
X14.8Y-8.025
X14.8Y-8.4
X14.8Y-8.7
X14.8Y-8.8
X14.87Y-5.812
X14.9Y-6.25
X14.9Y-7.05
X14.9Y-8.4
X14.9Y-8.7
X14.9Y-8.8
X15.0Y-6.25
X15.0Y-7.05
X15.0Y-8.025
X15.0Y-8.4
X15.0Y-8.7
X15.0Y-8.8
X15.1Y-6.25
X15.1Y-7.05
X15.1Y-8.025
X15.1Y-8.4
X15.1Y-8.7
X15.1Y-8.8
X15.2Y-8.025
X15.2Y-8.7
X15.2Y-8.8
X15.3Y-8.4
X15.3Y-8.7
X15.3Y-8.8
X15.4Y-8.4
X15.4Y-8.7
X15.4Y-8.8
X15.425Y-4.9
X15.5Y-9.5
M30
